<svg width="476" height="141" viewBox="0 0 476 141" fill="none" xmlns="http://www.w3.org/2000/svg">
<path d="M6 96.5556C6 96.5556 55.5 75.0556 229 96.5556C402.5 118.056 470 96.5556 470 96.5556" stroke="#EAC77E" stroke-width="10" stroke-linecap="round"/>
<path d="M18.305 97.4749C15.8983 97.4749 14.1883 96.2082 13.175 93.6749C12.225 91.1416 11.75 87.0882 11.75 81.5149C11.75 73.2816 12.9217 65.4599 15.265 58.0499C15.835 56.2132 16.7533 54.8832 18.02 54.0599C19.35 53.1732 21.1867 52.7299 23.53 52.7299C24.7967 52.7299 25.6833 52.8882 26.19 53.2049C26.6967 53.5216 26.95 54.1232 26.95 55.0099C26.95 56.0232 26.475 58.3032 25.525 61.8499C24.8917 64.3832 24.385 66.5999 24.005 68.4999C23.625 70.3366 23.3083 72.6482 23.055 75.4349C24.765 70.4949 26.7917 66.3149 29.135 62.8949C31.5417 59.4749 33.98 56.9416 36.45 55.2949C38.9833 53.5849 41.3583 52.7299 43.575 52.7299C45.7917 52.7299 47.3433 53.2366 48.23 54.2499C49.18 55.2632 49.655 56.8149 49.655 58.9049C49.655 60.9316 49.0533 64.6049 47.85 69.9249C47.3433 72.2049 46.995 73.9149 46.805 75.0549C49.9717 67.2649 53.4867 61.5966 57.35 58.0499C61.2133 54.5032 64.8233 52.7299 68.18 52.7299C72.2967 52.7299 74.355 54.7882 74.355 58.9049C74.355 61.3749 73.6583 65.8399 72.265 72.2999C71.0617 77.8099 70.46 81.4516 70.46 83.2249C70.46 85.7582 71.3783 87.0249 73.215 87.0249C74.4817 87.0249 75.97 86.2649 77.68 84.7449C79.4533 83.1616 81.7967 80.6282 84.71 77.1449C85.47 76.2582 86.325 75.8149 87.275 75.8149C88.0983 75.8149 88.7317 76.1949 89.175 76.9549C89.6817 77.7149 89.935 78.7599 89.935 80.0899C89.935 82.6232 89.3333 84.5866 88.13 85.9799C85.4067 89.3366 82.4617 92.0916 79.295 94.2449C76.1917 96.3982 72.645 97.4749 68.655 97.4749C65.425 97.4749 62.9867 96.5566 61.34 94.7199C59.6933 92.8199 58.87 90.0966 58.87 86.5499C58.87 84.7766 59.3133 81.6099 60.2 77.0499C61.0233 73.0599 61.435 70.3049 61.435 68.7849C61.435 67.7716 61.0867 67.2649 60.39 67.2649C59.5667 67.2649 58.395 68.3416 56.875 70.4949C55.355 72.5849 53.835 75.3716 52.315 78.8549C50.795 82.3382 49.56 86.0116 48.61 89.8749C47.9133 92.9149 47.09 94.9416 46.14 95.9549C45.2533 96.9682 43.7967 97.4749 41.77 97.4749C39.68 97.4749 38.0967 96.4932 37.02 94.5299C36.0067 92.5032 35.5 90.0649 35.5 87.2149C35.5 84.8082 35.8167 81.3249 36.45 76.7649C36.9567 72.7116 37.21 70.0516 37.21 68.7849C37.21 67.7716 36.8617 67.2649 36.165 67.2649C35.215 67.2649 34.0117 68.4049 32.555 70.6849C31.0983 72.9649 29.6733 75.8782 28.28 79.4249C26.95 82.9716 25.8733 86.4549 25.05 89.8749C24.3533 92.8516 23.53 94.8782 22.58 95.9549C21.6933 96.9682 20.2683 97.4749 18.305 97.4749ZM130.893 76.0049C131.717 76.0049 132.35 76.4166 132.793 77.2399C133.3 77.9999 133.553 78.9816 133.553 80.1849C133.553 81.6416 133.332 82.7816 132.888 83.6049C132.445 84.4282 131.748 85.1566 130.798 85.7899L112.558 98.0449C110.152 111.155 106.985 121.447 103.058 128.92C99.195 136.457 94.255 140.225 88.2384 140.225C85.0084 140.225 82.38 139.212 80.3534 137.185C78.3267 135.222 77.3134 132.625 77.3134 129.395C77.3134 126.418 77.9784 123.378 79.3084 120.275C80.7017 117.172 83.235 113.593 86.9084 109.54C90.645 105.55 95.9017 100.958 102.678 95.7649L102.963 93.5799C103.407 91.2366 103.913 87.8799 104.483 83.5099C103.217 88.0699 101.443 91.5532 99.1634 93.9599C96.8834 96.3032 94.4767 97.4749 91.9434 97.4749C89.0934 97.4749 86.75 96.1766 84.9134 93.5799C83.14 90.9199 82.2534 87.6266 82.2534 83.6999C82.2534 78.9499 82.57 74.6116 83.2034 70.6849C83.8367 66.6949 84.8817 62.4832 86.3384 58.0499C86.9717 56.1499 87.8584 54.7882 88.9984 53.9649C90.1384 53.1416 91.9434 52.7299 94.4134 52.7299C95.8067 52.7299 96.7567 52.9516 97.2634 53.3949C97.8334 53.8382 98.1184 54.5032 98.1184 55.3899C98.1184 55.8966 97.77 57.6066 97.0734 60.5199C96.44 62.8632 95.9334 64.9849 95.5534 66.8849C95.0467 69.4816 94.6034 71.9832 94.2234 74.3899C93.8434 76.7332 93.6534 78.6649 93.6534 80.1849C93.6534 82.5916 94.3184 83.7949 95.6484 83.7949C96.5984 83.7949 97.77 82.8449 99.1634 80.9449C100.62 79.0449 102.14 76.1632 103.723 72.2999C105.37 68.4366 106.953 63.6866 108.473 58.0499C108.98 56.1499 109.74 54.7882 110.753 53.9649C111.83 53.1416 113.413 52.7299 115.503 52.7299C116.96 52.7299 117.973 52.9199 118.543 53.2999C119.113 53.6799 119.398 54.3132 119.398 55.1999C119.398 56.7832 118.575 62.2299 116.928 71.5399L114.458 86.8349C119.335 83.1616 124.085 79.8049 128.708 76.7649C129.532 76.2582 130.26 76.0049 130.893 76.0049ZM89.2834 131.01C90.8667 131.01 92.64 129.173 94.6034 125.5C96.5667 121.827 98.53 115.715 100.493 107.165C95.6167 111.282 92.07 115.018 89.8534 118.375C87.7 121.795 86.6234 124.772 86.6234 127.305C86.6234 128.382 86.8134 129.268 87.1934 129.965C87.6367 130.662 88.3334 131.01 89.2834 131.01ZM205.612 36.1999C205.612 41.5832 203.712 46.2382 199.912 50.1649C196.112 54.0282 190.571 56.8149 183.287 58.5249C187.214 59.6016 190.191 61.3749 192.217 63.8449C194.244 66.2516 195.257 69.0382 195.257 72.2049C195.257 77.2082 193.674 81.5466 190.507 85.2199C187.404 88.8932 182.844 91.7432 176.827 93.7699C170.811 95.7332 163.559 96.7149 155.072 96.7149C151.906 96.7149 149.372 96.6199 147.472 96.4299C147.409 98.2032 146.649 99.5332 145.192 100.42C143.736 101.307 141.867 101.75 139.587 101.75C137.307 101.75 135.724 101.243 134.837 100.23C134.014 99.2166 133.666 97.7282 133.792 95.7649C134.362 86.8982 135.471 77.6199 137.117 67.9299C138.764 58.1766 140.854 48.7716 143.387 39.7149C143.831 38.1316 144.717 37.0232 146.047 36.3899C147.377 35.7566 149.119 35.4399 151.272 35.4399C155.136 35.4399 157.067 36.5166 157.067 38.6699C157.067 39.5566 156.877 40.5699 156.497 41.7099C154.851 46.6499 153.204 53.3632 151.557 61.8499C149.911 70.2732 148.739 78.3166 148.042 85.9799C151.082 86.2332 153.552 86.3599 155.452 86.3599C164.319 86.3599 170.811 85.0932 174.927 82.5599C179.107 79.9632 181.197 76.6699 181.197 72.6799C181.197 69.8932 179.994 67.5499 177.587 65.6499C175.244 63.7499 171.286 62.7049 165.712 62.5149C164.446 62.4516 163.559 62.1349 163.052 61.5649C162.546 60.9949 162.292 60.0766 162.292 58.8099C162.292 56.9732 162.672 55.4849 163.432 54.3449C164.192 53.2049 165.586 52.6032 167.612 52.5399C172.109 52.4132 176.162 51.7482 179.772 50.5449C183.446 49.3416 186.327 47.6632 188.417 45.5099C190.507 43.2932 191.552 40.7282 191.552 37.8149C191.552 34.1416 189.747 31.2599 186.137 29.1699C182.527 27.0166 176.986 25.9399 169.512 25.9399C162.736 25.9399 156.181 26.8266 149.847 28.5999C143.514 30.3099 138.131 32.4949 133.697 35.1549C131.671 36.3582 129.961 36.9599 128.567 36.9599C127.427 36.9599 126.541 36.5799 125.907 35.8199C125.337 34.9966 125.052 33.9832 125.052 32.7799C125.052 31.1966 125.369 29.8349 126.002 28.6949C126.699 27.5549 128.314 26.2566 130.847 24.7999C136.167 21.7599 142.406 19.3849 149.562 17.6749C156.719 15.9649 164.034 15.1099 171.507 15.1099C182.971 15.1099 191.521 17.0416 197.157 20.9049C202.794 24.7682 205.612 29.8666 205.612 36.1999ZM214.126 97.4749C211.276 97.4749 208.933 96.1766 207.096 93.5799C205.323 90.9199 204.436 87.6266 204.436 83.6999C204.436 78.9499 204.753 74.6116 205.386 70.6849C206.019 66.6949 207.064 62.4832 208.521 58.0499C209.154 56.1499 210.041 54.7882 211.181 53.9649C212.321 53.1416 214.126 52.7299 216.596 52.7299C217.989 52.7299 218.939 52.9516 219.446 53.3949C220.016 53.8382 220.301 54.5032 220.301 55.3899C220.301 55.8966 219.953 57.6066 219.256 60.5199C218.623 62.8632 218.116 64.9849 217.736 66.8849C216.469 73.5349 215.836 77.9682 215.836 80.1849C215.836 81.5149 215.994 82.4649 216.311 83.0349C216.628 83.5416 217.134 83.7949 217.831 83.7949C218.781 83.7949 219.953 82.8449 221.346 80.9449C222.803 79.0449 224.323 76.1632 225.906 72.2999C227.553 68.4366 229.136 63.6866 230.656 58.0499C231.163 56.1499 231.923 54.7882 232.936 53.9649C234.013 53.1416 235.596 52.7299 237.686 52.7299C239.143 52.7299 240.156 52.9199 240.726 53.2999C241.296 53.6166 241.581 54.2499 241.581 55.1999C241.581 56.7832 240.789 61.1216 239.206 68.2149C237.433 76.3216 236.546 81.3249 236.546 83.2249C236.546 84.4282 236.799 85.3782 237.306 86.0749C237.813 86.7082 238.478 87.0249 239.301 87.0249C240.568 87.0249 242.056 86.2649 243.766 84.7449C245.539 83.1616 247.883 80.6282 250.796 77.1449C251.556 76.2582 252.411 75.8149 253.361 75.8149C254.184 75.8149 254.818 76.1949 255.261 76.9549C255.768 77.7149 256.021 78.7599 256.021 80.0899C256.021 82.6232 255.419 84.5866 254.216 85.9799C251.493 89.3366 248.548 92.0916 245.381 94.2449C242.278 96.3982 238.731 97.4749 234.741 97.4749C231.701 97.4749 229.453 96.3032 227.996 93.9599C226.603 91.6166 225.906 88.3232 225.906 84.0799C224.829 88.3866 223.214 91.7116 221.061 94.0549C218.908 96.3349 216.596 97.4749 214.126 97.4749ZM290.688 75.8149C291.511 75.8149 292.144 76.1949 292.588 76.9549C293.094 77.7149 293.348 78.7599 293.348 80.0899C293.348 82.6232 292.746 84.5866 291.543 85.9799C288.819 89.3366 285.843 92.0916 282.613 94.2449C279.383 96.3982 275.678 97.4749 271.498 97.4749C258.578 97.4749 252.118 88.3866 252.118 70.2099C252.118 67.4232 252.213 64.6049 252.403 61.7549H248.698C246.798 61.7549 245.499 61.4066 244.803 60.7099C244.169 60.0132 243.853 58.9049 243.853 57.3849C243.853 53.8382 245.278 52.0649 248.128 52.0649H253.543C254.619 45.0982 256.266 38.7332 258.483 32.9699C260.699 27.2066 263.359 22.6149 266.463 19.1949C269.629 15.7749 273.018 14.0649 276.628 14.0649C279.288 14.0649 281.378 15.2366 282.898 17.5799C284.418 19.9232 285.178 22.8682 285.178 26.4149C285.178 36.2316 281.061 44.7816 272.828 52.0649H283.468C284.481 52.0649 285.209 52.2866 285.653 52.7299C286.096 53.1732 286.318 53.9966 286.318 55.1999C286.318 59.5699 282.739 61.7549 275.583 61.7549H263.993C263.866 64.9216 263.803 67.3916 263.803 69.1649C263.803 75.7516 264.563 80.3749 266.083 83.0349C267.666 85.6949 270.136 87.0249 273.493 87.0249C276.216 87.0249 278.623 86.2016 280.713 84.5549C282.803 82.9082 285.273 80.4382 288.123 77.1449C288.883 76.2582 289.738 75.8149 290.688 75.8149ZM274.063 23.1849C273.113 23.1849 272.036 24.3882 270.833 26.7949C269.693 29.1382 268.584 32.4316 267.508 36.6749C266.494 40.8549 265.639 45.5099 264.943 50.6399C268.679 47.4099 271.466 43.7999 273.303 39.8099C275.203 35.7566 276.153 32.0832 276.153 28.7899C276.153 25.0532 275.456 23.1849 274.063 23.1849ZM303.283 97.4749C297.266 97.4749 292.548 95.7332 289.128 92.2499C285.771 88.7032 284.093 84.0482 284.093 78.2849C284.093 73.1549 285.106 68.6582 287.133 64.7949C289.159 60.9316 291.788 57.9549 295.018 55.8649C298.248 53.7749 301.636 52.7299 305.183 52.7299C308.666 52.7299 311.358 53.7749 313.258 55.8649C315.221 57.8916 316.203 60.5199 316.203 63.7499C316.203 66.4099 315.601 68.6582 314.398 70.4949C313.258 72.3316 311.738 73.2499 309.838 73.2499C308.634 73.2499 307.653 72.9649 306.893 72.3949C306.196 71.8249 305.848 71.0332 305.848 70.0199C305.848 69.5766 305.911 69.0699 306.038 68.4999C306.164 67.9299 306.259 67.5182 306.323 67.2649C306.639 66.3149 306.798 65.4282 306.798 64.6049C306.798 63.7816 306.576 63.1482 306.133 62.7049C305.753 62.2616 305.183 62.0399 304.423 62.0399C302.966 62.0399 301.604 62.7049 300.338 64.0349C299.071 65.3016 298.058 67.0432 297.298 69.2599C296.538 71.4766 296.158 73.9149 296.158 76.5749C296.158 80.1849 296.886 82.9399 298.343 84.8399C299.863 86.6766 301.984 87.5949 304.708 87.5949C306.861 87.5949 308.824 86.9616 310.598 85.6949C312.434 84.4282 314.239 82.5599 316.013 80.0899C316.773 79.1399 317.628 78.6649 318.578 78.6649C319.401 78.6649 320.034 79.0449 320.478 79.8049C320.984 80.5649 321.238 81.6099 321.238 82.9399C321.238 85.2199 320.699 87.1832 319.623 88.8299C317.913 91.4899 315.664 93.6116 312.878 95.1949C310.091 96.7149 306.893 97.4749 303.283 97.4749Z" fill="#D46456"/>
<path d="M321.115 9.17313C322.138 8.70114 323.242 8.67875 324.427 9.08121C325.405 9.41532 325.612 9.5532 326.268 10.3004C327.694 11.8878 327.729 13.8548 326.371 15.4646C326.015 15.8906 325.692 16.3732 325.681 16.4999C325.669 16.6496 325.877 17.5005 326.153 18.3973C327.487 22.6529 327.406 26.7134 325.934 31.8435C325.094 34.7762 325.014 37.1809 325.738 38.5268C326.187 39.3435 327.004 39.7229 328.464 39.8031C329.431 39.849 329.729 39.9416 330.063 40.2751C330.431 40.6434 330.488 40.9303 330.5 42.7134C330.511 43.8289 330.477 44.7834 330.408 44.8524C330.339 44.9213 327.406 44.9791 323.886 44.9785H317.514L317.112 42.1601C316.076 34.8445 315.777 26.9309 316.318 22.0424C316.675 18.8793 317.365 15.5206 318.17 13.1972C318.78 11.3911 318.906 11.1495 319.677 10.3328C320.194 9.77123 320.735 9.34579 321.115 9.17313Z" fill="#D46456"/>
<path d="M329.477 47.5105H341.301L341.461 48.4539C343.371 59.6803 343.934 75.9331 342.819 87.3775C342.75 88.1595 342.727 88.8271 342.761 88.8613C342.796 88.8954 343.383 88.9302 344.061 88.919L345.315 88.9072L345.534 85.9509C346.385 74.4717 345.89 59.9443 344.315 50.2016C344.108 48.9129 343.958 47.798 343.981 47.6825C344.004 47.5906 345.12 47.5099 346.431 47.5105H348.847L349.191 49.2128C350.468 55.7117 350.928 62.0149 350.928 72.8731C350.94 81.8792 350.64 86.0205 349.444 93.1976L348.869 96.6247H335.458C325.888 96.6247 321.77 96.5557 321.137 96.3601C319.872 95.9918 318.572 94.8298 317.974 93.5187C317.56 92.5989 317.537 91.7934 317.525 70.0883C317.514 57.7476 317.537 47.6024 317.571 47.5682C317.606 47.5335 322.967 47.5105 329.477 47.5105ZM322.805 88.2514C322.701 88.5389 322.69 89.0333 322.782 89.3556C323.506 92.4033 327.843 91.9784 327.831 88.8613C327.842 87.6763 327.256 86.8826 326.106 86.4913C324.645 85.9975 323.288 86.7335 322.805 88.2514Z" fill="#D46456"/>
<path d="M391.93 75.815C392.753 75.815 393.387 76.195 393.83 76.955C394.337 77.715 394.59 78.76 394.59 80.09C394.59 82.6233 393.988 84.5867 392.785 85.98C390.442 88.83 387.117 91.4583 382.81 93.865C378.567 96.2717 374.007 97.475 369.13 97.475C362.48 97.475 357.318 95.67 353.645 92.06C349.972 88.45 348.135 83.51 348.135 77.24C348.135 72.87 349.053 68.8167 350.89 65.08C352.727 61.28 355.26 58.2717 358.49 56.055C361.783 53.8383 365.488 52.73 369.605 52.73C373.278 52.73 376.223 53.8383 378.44 56.055C380.657 58.2083 381.765 61.1533 381.765 64.89C381.765 69.26 380.182 73.0283 377.015 76.195C373.912 79.2983 368.623 81.7683 361.15 83.605C362.733 86.5183 365.742 87.975 370.175 87.975C373.025 87.975 376.255 86.9933 379.865 85.03C383.538 83.0033 386.705 80.375 389.365 77.145C390.125 76.2583 390.98 75.815 391.93 75.815ZM367.99 62.04C365.647 62.04 363.652 63.4017 362.005 66.125C360.422 68.8483 359.63 72.1417 359.63 76.005V76.195C363.367 75.3083 366.312 73.9783 368.465 72.205C370.618 70.4317 371.695 68.3733 371.695 66.03C371.695 64.8267 371.347 63.8767 370.65 63.18C370.017 62.42 369.13 62.04 367.99 62.04ZM393.6 97.475C391.193 97.475 389.483 96.2083 388.47 93.675C387.52 91.1417 387.045 87.0883 387.045 81.515C387.045 73.2817 388.217 65.46 390.56 58.05C391.13 56.2133 392.048 54.8833 393.315 54.06C394.645 53.1733 396.482 52.73 398.825 52.73C400.092 52.73 400.978 52.8883 401.485 53.205C401.992 53.5217 402.245 54.1233 402.245 55.01C402.245 56.0233 401.77 58.3033 400.82 61.85C400.187 64.3833 399.68 66.6 399.3 68.5C398.92 70.4 398.603 72.7433 398.35 75.53C400.44 70.0833 402.783 65.65 405.38 62.23C407.977 58.81 410.51 56.3717 412.98 54.915C415.513 53.4583 417.825 52.73 419.915 52.73C424.032 52.73 426.09 54.7883 426.09 58.905C426.09 59.7283 425.805 61.7233 425.235 64.89C424.728 67.4233 424.475 69.0067 424.475 69.64C424.475 71.8567 425.267 72.965 426.85 72.965C428.623 72.965 430.903 71.5717 433.69 68.785C434.513 67.9617 435.368 67.55 436.255 67.55C437.078 67.55 437.712 67.93 438.155 68.69C438.662 69.3867 438.915 70.3367 438.915 71.54C438.915 73.8833 438.282 75.72 437.015 77.05C435.242 78.8867 433.152 80.47 430.745 81.8C428.402 83.0667 425.9 83.7 423.24 83.7C419.883 83.7 417.318 82.845 415.545 81.135C413.835 79.425 412.98 77.1133 412.98 74.2C412.98 73.25 413.075 72.3 413.265 71.35C413.392 70.0833 413.455 69.2283 413.455 68.785C413.455 67.7717 413.107 67.265 412.41 67.265C411.46 67.265 410.193 68.3417 408.61 70.495C407.09 72.585 405.57 75.3717 404.05 78.855C402.53 82.3383 401.295 86.0117 400.345 89.875C399.648 92.8517 398.825 94.8783 397.875 95.955C396.988 96.9683 395.563 97.475 393.6 97.475ZM463.337 52.73C464.794 52.73 465.807 52.92 466.377 53.3C466.947 53.68 467.232 54.3133 467.232 55.2C467.232 56.72 466.409 62.135 464.762 71.445C463.306 80.375 462.451 85.6633 462.197 87.31C459.854 103.587 456.624 116.475 452.507 125.975C448.391 135.475 442.912 140.225 436.072 140.225C432.842 140.225 430.214 139.212 428.187 137.185C426.161 135.222 425.147 132.625 425.147 129.395C425.147 126.418 425.812 123.378 427.142 120.275C428.536 117.172 431.069 113.593 434.742 109.54C438.479 105.55 443.736 100.958 450.512 95.765L450.797 93.58C451.241 91.2367 451.747 87.88 452.317 83.51C451.051 88.07 449.277 91.5533 446.997 93.96C444.717 96.3033 442.311 97.475 439.777 97.475C436.927 97.475 434.584 96.1767 432.747 93.58C430.974 90.92 430.087 87.6267 430.087 83.7C430.087 78.95 430.404 74.6117 431.037 70.685C431.671 66.695 432.716 62.4833 434.172 58.05C434.806 56.15 435.692 54.7883 436.832 53.965C437.972 53.1417 439.777 52.73 442.247 52.73C443.641 52.73 444.591 52.9517 445.097 53.395C445.667 53.8383 445.952 54.5033 445.952 55.39C445.952 55.8967 445.604 57.6067 444.907 60.52C444.274 62.8633 443.767 64.985 443.387 66.885C442.881 69.4817 442.437 71.9833 442.057 74.39C441.677 76.7333 441.487 78.665 441.487 80.185C441.487 82.5917 442.152 83.795 443.482 83.795C444.432 83.795 445.604 82.845 446.997 80.945C448.454 79.045 449.974 76.1633 451.557 72.3C453.204 68.4367 454.787 63.6867 456.307 58.05C456.814 56.15 457.574 54.7883 458.587 53.965C459.664 53.1417 461.247 52.73 463.337 52.73ZM437.117 131.01C438.701 131.01 440.474 129.173 442.437 125.5C444.401 121.827 446.364 115.715 448.327 107.165C443.451 111.282 439.904 115.018 437.687 118.375C435.534 121.795 434.457 124.772 434.457 127.305C434.457 128.382 434.647 129.268 435.027 129.965C435.471 130.662 436.167 131.01 437.117 131.01Z" fill="#D46456"/>
</svg>
